<svg xmlns="http://www.w3.org/2000/svg" xmlns:xlink="http://www.w3.org/1999/xlink" width="1389.244" height="358.556" viewBox="0 0 1389.244 358.556">
  <defs>
    <linearGradient id="linear-gradient" x1="-0.148" y1="0.676" x2="1.122" y2="0.674" gradientUnits="objectBoundingBox">
      <stop offset="0" stop-color="#ffd580"/>
      <stop offset="0.337" stop-color="#f0a925"/>
      <stop offset="0.694" stop-color="#ffe56f"/>
      <stop offset="1" stop-color="#f6b547"/>
    </linearGradient>
    <linearGradient id="linear-gradient-2" x1="0.194" y1="-0.672" x2="0.719" y2="1.702" gradientUnits="objectBoundingBox">
      <stop offset="0" stop-color="#ffd580"/>
      <stop offset="0.333" stop-color="#f0a925"/>
      <stop offset="0.671" stop-color="#ffe56f"/>
      <stop offset="1" stop-color="#f6b547"/>
    </linearGradient>
    <linearGradient id="linear-gradient-3" x1="0.5" x2="0.5" y2="1" gradientUnits="objectBoundingBox">
      <stop offset="0" stop-color="#ffd580"/>
      <stop offset="0.402" stop-color="#f0a925"/>
      <stop offset="0.683" stop-color="#ffe56f"/>
      <stop offset="1" stop-color="#f6b547"/>
    </linearGradient>
    <linearGradient id="linear-gradient-5" x1="0.5" x2="0.5" y2="1" gradientUnits="objectBoundingBox">
      <stop offset="0" stop-color="#ffd580"/>
      <stop offset="0.338" stop-color="#f0a925"/>
      <stop offset="0.666" stop-color="#ffe56f"/>
      <stop offset="1" stop-color="#f6b547"/>
    </linearGradient>
  </defs>
  <g id="Golden_Logo_with_golden_text_tagline" data-name="Golden Logo with golden text + tagline" transform="translate(-157.886 -107)">
    <g id="Golden_Logo_with_Text_tagline" data-name="Golden Logo with Text + tagline">
      <g id="Group_17" data-name="Group 17" transform="translate(-531 -99.039)">
        <path id="Union_12" data-name="Union 12" d="M-1831.31,561.26a92.9,92.9,0,0,1-28.167-17.326,95.307,95.307,0,0,1-30.92-58.356l-.2-1.462-1.062,1.023a11.74,11.74,0,0,1-5.562,3.076,11.318,11.318,0,0,1-2.542.288c-3.618,0-7.343-1.73-10.489-4.872a26.52,26.52,0,0,1-6.785-12.705,25.7,25.7,0,0,1,1.055-15.785c1.939-4.517,5.191-7.507,9.157-8.421a11.37,11.37,0,0,1,2.542-.288,13.286,13.286,0,0,1,6.809,1.988l1.381.817-.264-1.582-.3-1.826-.01-.059-.019-.057a87.776,87.776,0,0,1-4.587-28.04,87.656,87.656,0,0,1,8.125-36.94,92.791,92.791,0,0,1,9.536-16.127,97.977,97.977,0,0,1,12.635-14.056,102.9,102.9,0,0,1,15.319-11.6,106.791,106.791,0,0,1,17.588-8.762,110.916,110.916,0,0,1,40.314-7.47,110.916,110.916,0,0,1,40.314,7.47,106.783,106.783,0,0,1,17.587,8.762,102.911,102.911,0,0,1,15.32,11.6,98.028,98.028,0,0,1,12.635,14.056,92.855,92.855,0,0,1,9.536,16.127,87.656,87.656,0,0,1,8.125,36.94,87.732,87.732,0,0,1-5.313,30.111l-.749,2.054,1.849-1.167a13.617,13.617,0,0,1,7.219-2.239,11.378,11.378,0,0,1,2.542.288c3.967.914,7.219,3.9,9.157,8.421a25.7,25.7,0,0,1,1.055,15.785,26.526,26.526,0,0,1-6.786,12.7c-3.146,3.142-6.871,4.873-10.489,4.873a11.318,11.318,0,0,1-2.542-.288,11.748,11.748,0,0,1-5.561-3.075l-1.061-1.023-.2,1.462a95.3,95.3,0,0,1-30.92,58.356A92.913,92.913,0,0,1-1764.2,561.26a91.863,91.863,0,0,1-33.554,6.3A91.866,91.866,0,0,1-1831.31,561.26ZM-1876.894,334.2l-13.3-27.318L-1902,284.917l-5.318-8.8c-.483.044-.967.066-1.435.066a15.577,15.577,0,0,1-11.085-4.591,15.571,15.571,0,0,1-4.591-11.084,15.569,15.569,0,0,1,4.591-11.084,15.574,15.574,0,0,1,11.085-4.592,15.571,15.571,0,0,1,11.083,4.592,15.574,15.574,0,0,1,4.591,11.084,15.517,15.517,0,0,1-3.329,9.661l13.643,11.7,12.359,11.552,7.775,7.491,3.42-15.995,4.794-22.478,13.288,18.046,9.622,11.781,14.265-29.827,12.225-23.605a15.717,15.717,0,0,1-6.45-5.683,15.618,15.618,0,0,1-2.487-8.474A15.694,15.694,0,0,1-1798.276,209a15.694,15.694,0,0,1,15.675,15.676,15.708,15.708,0,0,1-9.258,14.306l9.633,23.456,13.833,29.827,8.436-10.374,14.908-19.453,3.653,22.341,2.83,16.133,5.207-4.916,15.974-14.1,15.03-12.717a15.593,15.593,0,0,1-2.614-8.667,15.694,15.694,0,0,1,15.676-15.676,15.694,15.694,0,0,1,15.676,15.676,15.693,15.693,0,0,1-15.676,15.675,15.606,15.606,0,0,1-5.585-1.025l-3.487,9.76-6.484,20.749-9.509,28.53h-7.468c-.373-.353-.757-.712-1.144-1.066a102.843,102.843,0,0,0-15.319-11.6,106.625,106.625,0,0,0-17.586-8.761,110.912,110.912,0,0,0-40.315-7.471,110.9,110.9,0,0,0-40.314,7.471,106.644,106.644,0,0,0-17.588,8.761,102.948,102.948,0,0,0-15.319,11.6c-.382.35-.766.708-1.144,1.066h-6.341Z" transform="translate(2613.313 -2.96)" fill="url(#linear-gradient)"/>
        <g id="Funky-PNG-" transform="translate(719 617.315)">
          <path id="Path_13" data-name="Path 13" d="M39.759-207.344a55.914,55.914,0,0,0-18.117,4.606c-7.37,3.514-13.477,10.065-15.865,17.025-.546,1.672-.614,1.706-2.593,2.252l-2.013.58-.1,5.425L1-172.031l1.433.682c1.467.717,1.467.717,1.706,3a62.382,62.382,0,0,0,2.661,11.7c2.525,7.472,6.448,12.385,12.044,15.081,3.651,1.774,8.632,2.968,14.705,3.514,5.664.512,16.206.2,19.652-.546,9.826-2.149,16.752-6.517,22.348-13.989,1.945-2.593,2.115-2.934,9.553-17.128,5.118-9.826,5.868-10.918,8.257-11.942a7.707,7.707,0,0,1,8.154,2.047,84.468,84.468,0,0,1,4.231,7.711c8.6,17.025,10.3,19.823,14.364,23.883a36.673,36.673,0,0,0,21.188,10.3c3.582.546,14.262.512,19.379-.034,10.065-1.058,16.445-4.162,20.642-10.065,3.173-4.435,5.561-11.5,6.756-19.994l.409-2.832,1.467-.717,1.433-.682-.068-5.459-.1-5.425-2.184-.58c-2.013-.478-2.252-.648-2.627-1.706-2.252-6.551-8.189-13.136-14.876-16.548-6.483-3.31-13.511-4.845-23.3-5.152-6.073-.171-7.472-.068-40.09,2.32a268.111,268.111,0,0,1-27.636-.341c-1.979-.2-6.892-.58-10.918-.887s-9.417-.751-11.942-1.024A110.472,110.472,0,0,0,39.759-207.344ZM76.71-195.88a8.967,8.967,0,0,1,1.4,1.877c0,.171-13.989.307-31.116.307l-31.15-.034,2.013-1.842,2.013-1.877H75.311Zm98.228.307,1.945,1.877H145.766c-17.128,0-31.15-.1-31.15-.273a10.532,10.532,0,0,1,1.535-1.877l1.5-1.6h55.375Zm-93.895,7.847a10.442,10.442,0,0,1,.239,1.945l.068,1.126-34.938.1c-22.621.034-35.074-.034-35.313-.273-.2-.2-.068-.921.478-2.047l.785-1.706H80.838Zm100.1.58a7.442,7.442,0,0,1,.682,2.081c0,.546-1.842.58-35.211.512l-35.245-.1.068-1.194c.068-.648.171-1.535.273-1.979l.171-.751H180.5Zm-99.763,8.53a10.188,10.188,0,0,0-.2,1.877v1.126H45.252c-19.789,0-36.029-.068-36.1-.136a8.7,8.7,0,0,1-.034-1.877l.136-1.74H81.589Zm102.22.853a4.26,4.26,0,0,1-.068,1.911c-.1.136-16.309.2-36.029.171l-35.791-.1-.1-1.808-.1-1.774h71.957ZM79.678-169.1a7.958,7.958,0,0,1-.58,2.047c-.307.614-1.433.648-34.767.648-22.007,0-34.494-.136-34.631-.341a8.752,8.752,0,0,1-.409-2.047l-.2-1.706H79.917Zm103.858-.239a6.271,6.271,0,0,1-.341,2.047l-.341.887h-68.92l-.341-.819a11.912,11.912,0,0,1-.512-2.047l-.239-1.228h70.694ZM76.744-160.977a10.377,10.377,0,0,1-.887,1.877l-.887,1.569H11.986L11.44-158.9a7.576,7.576,0,0,1-.546-1.877c0-.444,4.094-.512,32.925-.512C62.38-161.284,76.744-161.148,76.744-160.977Zm104.984.614a11.829,11.829,0,0,1-.546,1.877l-.375.955h-63.12l-.853-1.706a13.037,13.037,0,0,1-.853-1.877c0-.1,14.842-.171,32.959-.171h32.993ZM70.944-152.174a11.326,11.326,0,0,1-1.774,2.047L67.4-148.319H17.1l-1.228-1.672a8.017,8.017,0,0,1-1.228-2.047c0-.273,7.643-.375,28.148-.375C58.285-152.413,70.944-152.311,70.944-152.174Zm107.133.239a7.444,7.444,0,0,1-1.194,2.047l-1.228,1.569H125.6l-1.911-1.74c-1.058-.955-1.808-1.877-1.706-2.047s11.907-.307,28.148-.307C173.436-152.413,178.077-152.345,178.077-151.935ZM56.955-143c-5.186,1.638-12.76,2.184-20.471,1.535-4.162-.341-10.782-1.467-11.191-1.911-.1-.1,7.336-.171,16.513-.136C56.682-143.474,58.32-143.44,56.955-143Zm110.681-.2a50.233,50.233,0,0,1-5.118,1.058c-3.651.614-5.732.751-12.249.785-7.131.034-8.189-.034-11.43-.785a20.21,20.21,0,0,1-3.89-1.126c-.2-.136,7.267-.273,16.548-.239C161.29-143.508,168.046-143.372,167.636-143.2Z"/>
        </g>
        <path id="Path_30" data-name="Path 30" d="M1029.036,340.483l6.562,9.753,6.864,8.572,6.306,7,6.479,5.89,5.007,3.828-3.694-9.017-1.192-3.768-1.083-3.935-.667-2.874-.442-2.187-.578-4.43v-4.123l1.9,3.065,2.062,2.681,2.887,2.99,2.887,2.681,3.227,2.475,4.706,3.189,5.6,3.534,3.24,2.061-2.1-4.433-1.809-4.352-.726-2.253-.79-2.658-.643-2.606-.607-2.927-1.03-4.363-1.129-5.361-4.026-.511-2.486-.228-2.828-.211-4.826-.211-8.693.142-4.946.408-4.945.612Z" transform="translate(-238.511 -14)"/>
      </g>
      <g id="Group_23" data-name="Group 23" transform="translate(21 -16)">
        <path id="Path_40" data-name="Path 40" d="M39.61-22.44H77.69V0H10.54V-119.34H39.61Zm64.94-82.28q-7.65,0-12.495-4.5A14.6,14.6,0,0,1,87.21-120.36a14.788,14.788,0,0,1,4.845-11.305q4.845-4.5,12.495-4.505a17.387,17.387,0,0,1,12.325,4.505,14.788,14.788,0,0,1,4.845,11.305,14.6,14.6,0,0,1-4.845,11.135A17.387,17.387,0,0,1,104.55-104.72ZM119-94.86V0H89.93V-94.86Zm48.45-30.94V0H138.38V-125.8ZM293.42-61.2a27.757,27.757,0,0,1,16.66,10.285,29.2,29.2,0,0,1,6.29,18.445q0,14.96-10.455,23.715T276.76,0H221.17V-119.34h53.72q18.19,0,28.475,8.33T313.65-88.4q0,10.54-5.525,17.51A28.574,28.574,0,0,1,293.42-61.2Zm-43.18-9.86h19.04q7.14,0,10.965-3.145t3.825-9.265q0-6.12-3.825-9.35T269.28-96.05H250.24Zm21.42,47.6q7.31,0,11.3-3.315t4-9.6q0-6.29-4.165-9.86T271.32-49.81H250.24v26.35ZM325.72-47.6q0-14.62,5.525-25.67a41.212,41.212,0,0,1,15.045-17,39.278,39.278,0,0,1,21.25-5.95,36.5,36.5,0,0,1,17.595,4.08A30.055,30.055,0,0,1,396.78-81.43V-94.86h29.07V0H396.78V-13.43A31.392,31.392,0,0,1,384.965-2.72a36.5,36.5,0,0,1-17.6,4.08,38.571,38.571,0,0,1-21.08-6.035,41.7,41.7,0,0,1-15.045-17.17Q325.72-32.98,325.72-47.6Zm71.06.17q0-10.88-6.035-17.17a19.608,19.608,0,0,0-14.7-6.29,19.737,19.737,0,0,0-14.705,6.205Q355.3-58.48,355.3-47.6t6.035,17.255A19.484,19.484,0,0,0,376.04-23.97a19.608,19.608,0,0,0,14.7-6.29Q396.78-36.55,396.78-47.43Zm77.52-34a29.916,29.916,0,0,1,11.73-10.71,36.635,36.635,0,0,1,17.51-4.08,39.278,39.278,0,0,1,21.25,5.95,41.211,41.211,0,0,1,15.045,17q5.525,11.05,5.525,25.67t-5.525,25.755A41.7,41.7,0,0,1,524.79-4.675,38.866,38.866,0,0,1,503.54,1.36a36.633,36.633,0,0,1-17.51-4A30.892,30.892,0,0,1,474.3-13.26V0H445.23V-125.8H474.3ZM515.78-47.6q0-10.88-6.035-17.085A19.932,19.932,0,0,0,494.87-70.89a19.608,19.608,0,0,0-14.7,6.29q-6.035,6.29-6.035,17.17t6.035,17.17a19.608,19.608,0,0,0,14.7,6.29,19.753,19.753,0,0,0,14.79-6.375Q515.78-36.72,515.78-47.6ZM655.86-94.86,596.36,45.05H565.08L586.84-3.23,548.25-94.86h32.47l21.93,59.33,21.76-59.33ZM771.29-61.2a27.757,27.757,0,0,1,16.66,10.285,29.2,29.2,0,0,1,6.29,18.445q0,14.96-10.455,23.715T754.63,0H699.04V-119.34h53.72q18.19,0,28.475,8.33T791.52-88.4q0,10.54-5.525,17.51A28.574,28.574,0,0,1,771.29-61.2Zm-43.18-9.86h19.04q7.14,0,10.965-3.145t3.825-9.265q0-6.12-3.825-9.35T747.15-96.05H728.11Zm21.42,47.6q7.31,0,11.3-3.315t3.995-9.6q0-6.29-4.165-9.86T749.19-49.81H728.11v26.35ZM852.55,1.36a52.36,52.36,0,0,1-25.075-5.95,43.568,43.568,0,0,1-17.51-17q-6.375-11.05-6.375-25.84,0-14.62,6.46-25.755A43.834,43.834,0,0,1,827.73-90.27a52.86,52.86,0,0,1,25.16-5.95,52.86,52.86,0,0,1,25.16,5.95,43.834,43.834,0,0,1,17.68,17.085q6.46,11.135,6.46,25.755t-6.545,25.755A44.258,44.258,0,0,1,877.8-4.59,53.362,53.362,0,0,1,852.55,1.36Zm0-25.16a18.938,18.938,0,0,0,14.2-6.12q5.865-6.12,5.865-17.51t-5.7-17.51a18.4,18.4,0,0,0-14.025-6.12,18.449,18.449,0,0,0-14.11,6.035q-5.61,6.035-5.61,17.595,0,11.39,5.525,17.51A17.882,17.882,0,0,0,852.55-23.8Zm102,25.16a54.522,54.522,0,0,1-22.1-4.25,37.744,37.744,0,0,1-15.3-11.645,30.63,30.63,0,0,1-6.29-16.575h28.73a11.045,11.045,0,0,0,4.59,7.99,16.24,16.24,0,0,0,10.03,3.06q5.44,0,8.415-2.125A6.507,6.507,0,0,0,965.6-27.71q0-4.08-4.25-6.035a85.858,85.858,0,0,0-13.77-4.335,129.282,129.282,0,0,1-17-5.015,29.372,29.372,0,0,1-11.73-8.33q-4.93-5.695-4.93-15.385a26.124,26.124,0,0,1,4.505-14.875,30.332,30.332,0,0,1,13.26-10.625q8.755-3.91,20.825-3.91,17.85,0,28.135,8.84T992.46-63.92H965.6a11.576,11.576,0,0,0-4.335-7.82q-3.655-2.89-9.605-2.89-5.1,0-7.82,1.955a6.242,6.242,0,0,0-2.72,5.355q0,4.08,4.335,6.12a69.432,69.432,0,0,0,13.515,4.08,147.853,147.853,0,0,1,17.17,5.355,29.617,29.617,0,0,1,11.645,8.5Q992.8-37.4,992.97-27.54A24.958,24.958,0,0,1,988.3-12.665,30.92,30.92,0,0,1,974.865-2.38,51.362,51.362,0,0,1,954.55,1.36Zm93.16,0a54.522,54.522,0,0,1-22.1-4.25,37.744,37.744,0,0,1-15.3-11.645,30.63,30.63,0,0,1-6.29-16.575h28.73a11.045,11.045,0,0,0,4.59,7.99,16.24,16.24,0,0,0,10.03,3.06q5.44,0,8.415-2.125a6.507,6.507,0,0,0,2.975-5.525q0-4.08-4.25-6.035a85.86,85.86,0,0,0-13.77-4.335,129.28,129.28,0,0,1-17-5.015,29.372,29.372,0,0,1-11.73-8.33q-4.93-5.695-4.93-15.385a26.124,26.124,0,0,1,4.505-14.875,30.332,30.332,0,0,1,13.26-10.625q8.755-3.91,20.825-3.91,17.85,0,28.135,8.84t11.815,23.46h-26.86a11.577,11.577,0,0,0-4.335-7.82q-3.655-2.89-9.6-2.89-5.1,0-7.82,1.955a6.242,6.242,0,0,0-2.72,5.355q0,4.08,4.335,6.12a69.432,69.432,0,0,0,13.515,4.08,147.858,147.858,0,0,1,17.17,5.355,29.617,29.617,0,0,1,11.645,8.5q5.015,5.865,5.185,15.725a24.958,24.958,0,0,1-4.675,14.875,30.92,30.92,0,0,1-13.43,10.285A51.362,51.362,0,0,1,1047.71,1.36Z" transform="translate(440 352)" fill="url(#linear-gradient-2)"/>
        <path id="Path_38" data-name="Path 38" d="M0,0H206" transform="translate(446.5 432.5)" fill="#fddf67"/>
        <path id="Path_38_-_Outline" data-name="Path 38 - Outline" d="M192.166,2.5H0v-5H192.166Z" transform="translate(446.5 432.5)" fill="url(#linear-gradient-3)"/>
        <path id="Path_38_-_Outline-2" data-name="Path 38 - Outline" d="M192.166,2.5H0v-5H192.166Z" transform="translate(1333.964 432.5)" fill="url(#linear-gradient-3)"/>
      </g>
    </g>
    <path id="Path_45" data-name="Path 45" d="M-309.175,0l-13.45-15.55V0h-5.7V-34.75h5.7V-18.9l13.5-15.85h7.15l-15.1,17.4L-301.725,0Zm19.9-31.2a3.531,3.531,0,0,1-2.6-1.05,3.531,3.531,0,0,1-1.05-2.6,3.531,3.531,0,0,1,1.05-2.6,3.531,3.531,0,0,1,2.6-1.05,3.472,3.472,0,0,1,2.55,1.05,3.531,3.531,0,0,1,1.05,2.6,3.531,3.531,0,0,1-1.05,2.6A3.472,3.472,0,0,1-289.275-31.2Zm2.8,3.65V0h-5.7V-27.55Zm10.1,13.65a15.247,15.247,0,0,1,1.725-7.35,12.644,12.644,0,0,1,4.7-4.975A12.684,12.684,0,0,1-263.325-28,12.92,12.92,0,0,1-258-26.825a10.9,10.9,0,0,1,4.175,3.125V-37h5.75V0h-5.75V-4.15A10.672,10.672,0,0,1-257.7-.85a12.023,12.023,0,0,1-5.675,1.3,12.33,12.33,0,0,1-6.575-1.825,12.88,12.88,0,0,1-4.7-5.1A15.689,15.689,0,0,1-276.375-13.9Zm22.55.1A9.976,9.976,0,0,0-255-18.75a8.248,8.248,0,0,0-3.075-3.2,8.045,8.045,0,0,0-4.1-1.1,8.189,8.189,0,0,0-4.1,1.075,8.107,8.107,0,0,0-3.075,3.15,9.835,9.835,0,0,0-1.175,4.925,10.263,10.263,0,0,0,1.175,5,8.29,8.29,0,0,0,3.1,3.275A7.951,7.951,0,0,0-262.175-4.5a8.045,8.045,0,0,0,4.1-1.1A8.207,8.207,0,0,0-255-8.825,10.119,10.119,0,0,0-253.825-13.8ZM-226.075.45A13.88,13.88,0,0,1-231.9-.725a10.231,10.231,0,0,1-4.075-3.2,7.976,7.976,0,0,1-1.6-4.525h5.9A4.023,4.023,0,0,0-230-5.525a6.082,6.082,0,0,0,3.825,1.175,6.442,6.442,0,0,0,3.725-.925,2.791,2.791,0,0,0,1.325-2.375,2.439,2.439,0,0,0-1.475-2.3,27.649,27.649,0,0,0-4.675-1.65,45.122,45.122,0,0,1-5.05-1.65A8.853,8.853,0,0,1-235.7-15.7a6.421,6.421,0,0,1-1.425-4.35,6.784,6.784,0,0,1,1.3-4.025A8.657,8.657,0,0,1-232.1-26.95,13.918,13.918,0,0,1-226.525-28a11.512,11.512,0,0,1,7.575,2.375,8.528,8.528,0,0,1,3.075,6.475h-5.7a4.06,4.06,0,0,0-1.5-2.95,5.609,5.609,0,0,0-3.65-1.1,5.925,5.925,0,0,0-3.45.85,2.632,2.632,0,0,0-1.2,2.25,2.435,2.435,0,0,0,.8,1.85,5.7,5.7,0,0,0,1.95,1.175q1.15.425,3.4,1.075a36.986,36.986,0,0,1,4.925,1.625,9.169,9.169,0,0,1,3.325,2.425,6.416,6.416,0,0,1,1.45,4.25,7.128,7.128,0,0,1-1.3,4.2A8.619,8.619,0,0,1-220.5-.6,13.693,13.693,0,0,1-226.075.45Zm59.15-35.2v4.65h-14.75v10.25h11.5v4.65h-11.5V0h-5.7V-34.75Zm34.75,7.2V0h-5.7V-3.25A9.226,9.226,0,0,1-141.4-.575,11.178,11.178,0,0,1-146.025.4,12.355,12.355,0,0,1-151.85-.95a9.753,9.753,0,0,1-4.05-4,12.976,12.976,0,0,1-1.475-6.4v-16.2h5.65V-12.2a8,8,0,0,0,1.85,5.675,6.584,6.584,0,0,0,5.05,1.975,6.665,6.665,0,0,0,5.075-1.975,7.929,7.929,0,0,0,1.875-5.675V-27.55Zm18.65,4.65V-7.65a2.927,2.927,0,0,0,.725,2.225,3.6,3.6,0,0,0,2.475.675h3.5V0h-4.5a8.674,8.674,0,0,1-5.9-1.8q-2.05-1.8-2.05-5.85V-22.9h-3.25v-4.65h3.25V-34.4h5.75v6.85h6.7v4.65Zm41.4-4.65V0h-5.7V-3.25A9.226,9.226,0,0,1-81.35-.575,11.177,11.177,0,0,1-85.975.4,12.354,12.354,0,0,1-91.8-.95a9.753,9.753,0,0,1-4.05-4,12.976,12.976,0,0,1-1.475-6.4v-16.2h5.65V-12.2a8,8,0,0,0,1.85,5.675,6.584,6.584,0,0,0,5.05,1.975A6.665,6.665,0,0,0-79.7-6.525,7.929,7.929,0,0,0-77.825-12.2V-27.55Zm17.7,4A8.952,8.952,0,0,1-51.1-26.825,9.835,9.835,0,0,1-46.175-28v5.9h-1.45A6.942,6.942,0,0,0-52.7-20.4q-1.725,1.7-1.725,5.9V0h-5.7V-27.55h5.7Zm43.25,9.1a17.821,17.821,0,0,1-.2,2.8h-21.05a7.645,7.645,0,0,0,2.45,5.3,7.734,7.734,0,0,0,5.4,2,6.67,6.67,0,0,0,6.5-3.85h6.15A12.41,12.41,0,0,1-16.45-1.975,13.277,13.277,0,0,1-24.575.45,14.07,14.07,0,0,1-31.65-1.325a12.629,12.629,0,0,1-4.9-5A15.253,15.253,0,0,1-38.325-13.8,15.611,15.611,0,0,1-36.6-21.275a12.131,12.131,0,0,1,4.85-4.975A14.434,14.434,0,0,1-24.575-28a14.031,14.031,0,0,1,6.95,1.7,12.012,12.012,0,0,1,4.75,4.775A14.381,14.381,0,0,1-11.175-14.45Zm-5.95-1.8a6.487,6.487,0,0,0-2.25-5.05,8.044,8.044,0,0,0-5.45-1.9,7.321,7.321,0,0,0-5.05,1.875,7.836,7.836,0,0,0-2.5,5.075Zm39.25-18.5V0h-5.7V-34.75Zm22,35.2A13.88,13.88,0,0,1,38.3-.725a10.231,10.231,0,0,1-4.075-3.2,7.976,7.976,0,0,1-1.6-4.525h5.9A4.023,4.023,0,0,0,40.2-5.525,6.082,6.082,0,0,0,44.025-4.35a6.442,6.442,0,0,0,3.725-.925A2.791,2.791,0,0,0,49.075-7.65,2.439,2.439,0,0,0,47.6-9.95a27.648,27.648,0,0,0-4.675-1.65,45.121,45.121,0,0,1-5.05-1.65A8.853,8.853,0,0,1,34.5-15.7a6.421,6.421,0,0,1-1.425-4.35,6.784,6.784,0,0,1,1.3-4.025A8.657,8.657,0,0,1,38.1-26.95,13.918,13.918,0,0,1,43.675-28a11.512,11.512,0,0,1,7.575,2.375,8.528,8.528,0,0,1,3.075,6.475h-5.7a4.06,4.06,0,0,0-1.5-2.95,5.609,5.609,0,0,0-3.65-1.1,5.925,5.925,0,0,0-3.45.85,2.632,2.632,0,0,0-1.2,2.25,2.435,2.435,0,0,0,.8,1.85,5.7,5.7,0,0,0,1.95,1.175q1.15.425,3.4,1.075A36.987,36.987,0,0,1,49.9-14.375a9.169,9.169,0,0,1,3.325,2.425,6.416,6.416,0,0,1,1.45,4.25,7.128,7.128,0,0,1-1.3,4.2A8.619,8.619,0,0,1,49.7-.6,13.693,13.693,0,0,1,44.125.45Zm54.55-.1A18,18,0,0,1,89.75-1.925a16.857,16.857,0,0,1-6.45-6.35,17.882,17.882,0,0,1-2.375-9.175A17.748,17.748,0,0,1,83.3-26.6a16.91,16.91,0,0,1,6.45-6.325A18,18,0,0,1,98.675-35.2a18.1,18.1,0,0,1,8.975,2.275,16.73,16.73,0,0,1,6.425,6.325,17.9,17.9,0,0,1,2.35,9.15,18.03,18.03,0,0,1-2.35,9.175,16.679,16.679,0,0,1-6.425,6.35A18.1,18.1,0,0,1,98.675.35Zm0-4.95a11.978,11.978,0,0,0,6.15-1.575,10.919,10.919,0,0,0,4.225-4.5,14.449,14.449,0,0,0,1.525-6.775,14.3,14.3,0,0,0-1.525-6.75,10.788,10.788,0,0,0-4.225-4.45,12.129,12.129,0,0,0-6.15-1.55,12.129,12.129,0,0,0-6.15,1.55A10.788,10.788,0,0,0,88.3-24.2a14.3,14.3,0,0,0-1.525,6.75A14.449,14.449,0,0,0,88.3-10.675a10.919,10.919,0,0,0,4.225,4.5A11.978,11.978,0,0,0,98.675-4.6Zm52.8-22.95V0h-5.7V-3.25A9.226,9.226,0,0,1,142.25-.575,11.178,11.178,0,0,1,137.625.4,12.355,12.355,0,0,1,131.8-.95a9.753,9.753,0,0,1-4.05-4,12.976,12.976,0,0,1-1.475-6.4v-16.2h5.65V-12.2a8,8,0,0,0,1.85,5.675,6.584,6.584,0,0,0,5.05,1.975A6.665,6.665,0,0,0,143.9-6.525a7.929,7.929,0,0,0,1.875-5.675V-27.55Zm17.7,4a8.952,8.952,0,0,1,3.325-3.275A9.835,9.835,0,0,1,177.425-28v5.9h-1.45a6.942,6.942,0,0,0-5.075,1.7q-1.725,1.7-1.725,5.9V0h-5.7V-27.55h5.7Zm60.65-1.2a9.186,9.186,0,0,0-3.75-3.925A11.3,11.3,0,0,0,220.525-30a12.129,12.129,0,0,0-6.15,1.55,10.862,10.862,0,0,0-4.225,4.4,13.778,13.778,0,0,0-1.525,6.6,13.926,13.926,0,0,0,1.525,6.625A10.824,10.824,0,0,0,214.375-6.4a12.129,12.129,0,0,0,6.15,1.55,10.882,10.882,0,0,0,7.55-2.6,11.3,11.3,0,0,0,3.55-7.05h-13.05v-4.55h19.15v4.45a17.106,17.106,0,0,1-2.875,7.45,17.1,17.1,0,0,1-6.05,5.425A17.041,17.041,0,0,1,220.525.3a17.959,17.959,0,0,1-8.95-2.275A16.962,16.962,0,0,1,205.15-8.3a17.748,17.748,0,0,1-2.375-9.15,17.748,17.748,0,0,1,2.375-9.15,16.91,16.91,0,0,1,6.45-6.325,18,18,0,0,1,8.925-2.275,18.131,18.131,0,0,1,9.875,2.725,15.516,15.516,0,0,1,6.275,7.725ZM259.775.45a14.109,14.109,0,0,1-7.05-1.775,12.751,12.751,0,0,1-4.95-5,15.082,15.082,0,0,1-1.8-7.475,14.793,14.793,0,0,1,1.85-7.45,12.778,12.778,0,0,1,5.05-5,14.654,14.654,0,0,1,7.15-1.75,14.654,14.654,0,0,1,7.15,1.75,12.778,12.778,0,0,1,5.05,5,14.793,14.793,0,0,1,1.85,7.45,14.486,14.486,0,0,1-1.9,7.45A13.156,13.156,0,0,1,267-1.325,14.916,14.916,0,0,1,259.775.45Zm0-4.95A8.482,8.482,0,0,0,263.9-5.55a8,8,0,0,0,3.125-3.15,10.128,10.128,0,0,0,1.2-5.1,10.338,10.338,0,0,0-1.15-5.075A7.763,7.763,0,0,0,264.025-22a8.341,8.341,0,0,0-4.1-1.05A8.2,8.2,0,0,0,255.85-22a7.5,7.5,0,0,0-2.975,3.125,10.724,10.724,0,0,0-1.1,5.075q0,4.45,2.275,6.875A7.517,7.517,0,0,0,259.775-4.5Zm22.55-9.4a15.247,15.247,0,0,1,1.725-7.35,12.644,12.644,0,0,1,4.7-4.975A12.592,12.592,0,0,1,295.325-28,12.027,12.027,0,0,1,301-26.725a11.516,11.516,0,0,1,3.875,3.175v-4h5.75V0h-5.75V-4.1a11.32,11.32,0,0,1-3.95,3.25,12.174,12.174,0,0,1-5.7,1.3,12.114,12.114,0,0,1-6.5-1.825,12.943,12.943,0,0,1-4.675-5.1A15.689,15.689,0,0,1,282.325-13.9Zm22.55.1a9.976,9.976,0,0,0-1.175-4.95,8.248,8.248,0,0,0-3.075-3.2,8.045,8.045,0,0,0-4.1-1.1,8.189,8.189,0,0,0-4.1,1.075,8.107,8.107,0,0,0-3.075,3.15,9.835,9.835,0,0,0-1.175,4.925,10.263,10.263,0,0,0,1.175,5,8.29,8.29,0,0,0,3.1,3.275A7.951,7.951,0,0,0,296.525-4.5a8.045,8.045,0,0,0,4.1-1.1A8.207,8.207,0,0,0,303.7-8.825,10.119,10.119,0,0,0,304.875-13.8ZM328.325-37V0h-5.7V-37Z" transform="translate(1006 434)" fill="url(#linear-gradient-5)"/>
  </g>
</svg>
